HIERARCHY
ROOT SpineBase
{
  OFFSET 0.000000 0.000000 0.000000
  CHANNELS 6 Xposition Yposition Zposition Zrotation Xrotation Yrotation
  JOINT SpineMid
  {
    OFFSET 0.000000 28.619004 0.000000
    CHANNELS 3 Zrotation Xrotation Yrotation
    JOINT SpineShoulder
    {
      OFFSET 0.012074 21.312791 -0.813453
      CHANNELS 3 Zrotation Xrotation Yrotation
      JOINT Neck
      {
        OFFSET 0.004583 7.076690 -0.574452
        CHANNELS 3 Zrotation Xrotation Yrotation
        JOINT Head
        {
          OFFSET -2.474061 8.832673 6.659554
          CHANNELS 3 Zrotation Xrotation Yrotation
          End Site
          {
            OFFSET 0 0 0
          }
        }
      }
      JOINT ShoulderLeft
      {
        OFFSET -11.263749 -9.979725 6.151827
        CHANNELS 3 Zrotation Xrotation Yrotation
        JOINT ElbowLeft
        {
          OFFSET -0.917746 -20.409489 -4.249834
          CHANNELS 3 Zrotation Xrotation Yrotation
          JOINT WristLeft
          {
            OFFSET -2.704158 -26.106953 4.013237
            CHANNELS 3 Zrotation Xrotation Yrotation
            JOINT HandLeft
            {
              OFFSET 4.315786 -12.405677 1.819641
              CHANNELS 3 Zrotation Xrotation Yrotation
              JOINT HandTipLeft
              {
                OFFSET -1.926897 -3.095669 1.355409
                CHANNELS 3 Zrotation Xrotation Yrotation
                End Site
                {
                  OFFSET 0 0 0
                }
              }
              JOINT ThumbLeft
              {
                OFFSET -1.395128 -1.743108 -0.416017
                CHANNELS 3 Zrotation Xrotation Yrotation
                End Site
                {
                  OFFSET 0 0 0
                }
              }
            }
          }
        }
      }
      JOINT ShoulderRight
      {
        OFFSET 6.370081 -2.958917 -8.326606
        CHANNELS 3 Zrotation Xrotation Yrotation
        JOINT ElbowRight
        {
          OFFSET 1.863419 -22.600426 -5.727751
          CHANNELS 3 Zrotation Xrotation Yrotation
          JOINT WristRight
          {
            OFFSET -4.760232 -23.922314 -4.553208
            CHANNELS 3 Zrotation Xrotation Yrotation
            JOINT HandRight
            {
              OFFSET -0.125761 -7.297557 0.372980
              CHANNELS 3 Zrotation Xrotation Yrotation
              JOINT HandTipRight
              {
                OFFSET -1.776909 -6.853558 -1.547275
                CHANNELS 3 Zrotation Xrotation Yrotation
                End Site
                {
                  OFFSET 0 0 0
                }
              }
              JOINT ThumbRight
              {
                OFFSET -4.986731 2.415610 4.105001
                CHANNELS 3 Zrotation Xrotation Yrotation
                End Site
                {
                  OFFSET 0 0 0
                }
              }
            }
          }
        }
      }
    }
  }
  JOINT HipLeft
  {
    OFFSET -4.007646 -0.228302 0.003860
    CHANNELS 3 Zrotation Xrotation Yrotation
    JOINT KneeLeft
    {
      OFFSET 1.111099 -43.766525 7.748293
      CHANNELS 3 Zrotation Xrotation Yrotation
      JOINT AnkleLeft
      {
        OFFSET 9.695396 -29.016209 -2.349355
        CHANNELS 3 Zrotation Xrotation Yrotation
        JOINT FootLeft
        {
          OFFSET 6.737777 -2.079791 -9.690618
          CHANNELS 3 Zrotation Xrotation Yrotation
          End Site
          {
            OFFSET 0 0 0
          }
        }
      }
    }
  }
  JOINT HipRight
  {
    OFFSET 4.422361 2.463791 -6.294042
    CHANNELS 3 Zrotation Xrotation Yrotation
    JOINT KneeRight
    {
      OFFSET 5.618331 -38.717870 -1.972878
      CHANNELS 3 Zrotation Xrotation Yrotation
      JOINT AnkleRight
      {
        OFFSET 4.374213 -31.374285 4.003285
        CHANNELS 3 Zrotation Xrotation Yrotation
        JOINT FootRight
        {
          OFFSET -5.083239 -2.431749 -9.370204
          CHANNELS 3 Zrotation Xrotation Yrotation
          End Site
          {
            OFFSET 0 0 0
          }
        }
      }
    }
  }
}
MOTION
Frames: 13
Frame Time: 0.033333
-27.606375 73.454665 325.729168 1.593068 0.149803 22.656225 0.462200 0.330081 -22.594067 -0.304085 0.163415 0.052650 -1.589953 -0.791967 -0.139470 0.000000 0.000000 0.000000 -1.757800 1.532494 -0.206481 14.733316 26.780659 -4.156349 7.227418 -9.051418 14.223681 4.643025 -2.677910 -7.800656 0.000000 0.000000 0.000000 0.000000 0.000000 0.000000 1.986846 1.283826 -0.883231 -2.023243 -2.735924 0.562890 -5.114841 -1.684037 -0.005429 0.249594 14.904109 -1.891549 0.000000 0.000000 0.000000 0.000000 0.000000 0.000000 -1.828635 9.568795 -23.091423 2.483368 -17.475990 -2.566958 1.788445 6.476894 -10.766658 0.000000 0.000000 0.000000 -4.283676 5.638134 -21.732283 10.043881 -4.978056 0.341138 -6.342557 -1.604152 9.177468 0.000000 0.000000 0.000000
-27.896602 73.240497 325.523011 1.481334 0.019353 20.956069 0.418187 0.279613 -20.895202 -0.294567 0.090523 0.049957 -0.405591 -0.215908 -0.839357 0.000000 0.000000 0.000000 -1.968838 0.284386 -0.060872 16.316294 25.751956 -4.154698 19.230924 -12.190418 17.598732 -14.406420 5.731361 -13.089089 0.000000 0.000000 0.000000 0.000000 0.000000 0.000000 3.082296 1.672485 -1.137997 -2.046583 -2.451031 0.549237 -6.531467 -1.338269 0.210406 3.512859 14.597060 -2.995556 0.000000 0.000000 0.000000 0.000000 0.000000 0.000000 -1.651087 10.558006 -21.375562 1.826298 -19.572753 -3.080492 3.078743 7.869254 -12.863901 0.000000 0.000000 0.000000 -4.431644 5.982240 -19.944739 10.992305 -5.437262 0.467644 -6.977642 -1.383557 8.710713 0.000000 0.000000 0.000000
-28.386281 72.794299 325.426713 1.064084 -0.303880 17.173025 0.564358 0.273262 -17.118688 -0.291926 0.084764 0.040505 0.245102 0.487701 -1.015063 0.000000 0.000000 0.000000 -2.107923 -2.510125 0.163672 16.154682 30.163214 -5.641093 6.208203 -14.697314 12.091185 8.132950 11.409996 -15.888428 0.000000 0.000000 0.000000 0.000000 0.000000 0.000000 4.505928 1.935612 -1.453390 -2.246808 -1.806937 0.535335 -9.598427 -3.164429 0.261508 8.208148 16.841123 -4.268545 0.000000 0.000000 0.000000 0.000000 0.000000 0.000000 -1.846375 11.052589 -17.532939 1.298030 -20.722042 -3.449949 2.931455 6.884406 -16.469559 0.000000 0.000000 0.000000 -3.980859 6.607293 -16.027390 11.595299 -6.460317 0.619629 -7.500409 -0.775520 6.896736 0.000000 0.000000 0.000000
-28.489620 72.179137 325.129384 1.227771 -0.307426 12.167435 0.264272 0.173291 -12.112172 -0.296027 -0.016518 0.038710 0.613206 0.736145 -1.248295 0.000000 0.000000 0.000000 -3.341532 -7.967817 0.582771 24.125019 45.676544 -13.353155 16.912712 -32.426136 21.073618 6.873903 23.130546 -18.627222 0.000000 0.000000 0.000000 0.000000 0.000000 0.000000 6.039031 2.012528 -1.874372 -2.892937 -1.735642 0.789837 -9.971708 -2.310731 0.462534 10.150156 9.014583 -3.076916 0.000000 0.000000 0.000000 0.000000 0.000000 0.000000 -2.028507 10.573241 -12.359142 -0.919538 -21.330775 -4.218114 1.643339 4.799671 -17.535364 0.000000 0.000000 0.000000 -5.241301 6.797127 -10.857217 12.552085 -7.039590 0.689977 -7.391080 0.156860 3.310064 0.000000 0.000000 0.000000
-28.751209 72.091287 325.075337 1.167304 -0.606321 15.521816 0.071216 0.318306 -15.474990 -1.150526 0.281452 -0.041251 2.502036 0.144305 -1.836351 0.000000 0.000000 0.000000 1.518489 -8.444349 0.179161 14.745543 54.299741 -12.852173 20.434538 -48.974118 22.924812 4.017120 30.098103 -15.795262 0.000000 0.000000 0.000000 0.000000 0.000000 0.000000 8.933020 1.507248 -2.239824 -3.727354 -1.008114 0.985974 -10.423667 -1.558918 0.724694 13.472440 2.831462 -2.459176 0.000000 0.000000 0.000000 0.000000 0.000000 0.000000 0.437715 11.409678 -15.654400 -4.714144 -23.791625 -5.837754 2.450796 5.522387 -16.789408 0.000000 0.000000 0.000000 -5.035005 7.324903 -14.179778 12.908812 -7.110003 0.680740 -7.049814 1.009164 0.324708 0.000000 0.000000 0.000000
-28.879401 72.378869 325.142789 1.237229 -0.988911 21.408375 -0.151771 0.465249 -21.362790 -0.147805 -0.031801 0.028885 1.850228 0.260236 -2.160060 0.000000 0.000000 0.000000 -0.172781 -11.863481 0.447811 30.401651 71.737195 -30.236730 35.471111 -61.381870 40.115989 68.220212 39.974471 -58.756527 0.000000 0.000000 0.000000 0.000000 0.000000 0.000000 9.974108 1.712650 -2.894706 -4.749017 -0.392063 1.232832 -9.420381 0.448969 1.059498 11.530736 -8.527500 0.982111 0.000000 0.000000 0.000000 0.000000 0.000000 0.000000 2.801745 12.493797 -21.661570 -6.558994 -25.336930 -6.647591 1.825423 4.378535 -16.526531 0.000000 0.000000 0.000000 -4.513302 7.561311 -20.159526 12.708476 -6.182043 0.609787 -6.469482 1.136798 -1.619865 0.000000 0.000000 0.000000
-28.873918 72.945111 325.308341 1.620361 -1.408483 28.444245 -0.027503 0.581574 -28.376685 0.147340 -0.063573 0.068389 -0.040482 -1.172502 -1.800838 0.000000 0.000000 0.000000 -6.317039 -15.084750 1.057110 143.691010 74.624515 -142.782131 85.369211 -56.093259 94.413859 95.329576 5.119487 -143.215657 0.000000 0.000000 0.000000 0.000000 0.000000 0.000000 11.098528 1.348531 -3.491695 -5.595825 0.187179 1.534457 -7.895723 4.715096 1.350392 9.559072 -18.421319 3.529403 0.000000 0.000000 0.000000 0.000000 0.000000 0.000000 4.749875 12.449432 -28.842371 -6.438462 -24.205257 -6.128046 1.041632 2.974729 -15.121507 0.000000 0.000000 0.000000 -3.835609 7.280720 -27.429582 11.123542 -4.319677 0.419113 -5.129940 0.634782 -2.831498 0.000000 0.000000 0.000000
-28.823228 73.716759 325.495763 2.287149 -1.877724 34.958587 0.213013 0.622020 -34.850868 0.387484 -0.058833 0.119061 -3.220129 -3.694629 -1.084796 0.000000 0.000000 0.000000 -19.386079 -17.556965 1.847519 -172.826058 41.410004 168.549944 55.512468 19.568687 134.542276 1.216173 7.480782 154.467358 0.000000 0.000000 0.000000 0.000000 0.000000 0.000000 11.762022 0.722598 -4.067274 -6.205896 0.965718 1.810206 -6.030986 8.791604 1.472460 7.931598 -24.047135 4.559465 0.000000 0.000000 0.000000 0.000000 0.000000 0.000000 6.345832 12.275125 -35.480068 -6.502490 -23.111377 -5.719239 2.025171 3.944710 -12.322529 0.000000 0.000000 0.000000 -3.391543 6.700601 -34.217763 8.751080 -2.006130 0.270214 -3.457670 -0.276603 -3.245548 0.000000 0.000000 0.000000
-28.657016 74.605741 325.664294 3.280052 -2.237905 40.635651 0.424933 0.593553 -40.469792 0.562332 -0.024920 0.177261 -7.394885 -7.082333 -0.143296 0.000000 0.000000 0.000000 -40.773917 -17.702615 3.233779 -146.301318 28.572262 129.734174 -6.619098 -18.879148 114.813511 6.987571 -4.988794 125.714690 0.000000 0.000000 0.000000 0.000000 0.000000 0.000000 11.804027 0.018761 -4.529135 -6.269707 1.744627 1.946954 -4.496454 11.588973 1.496810 5.512718 -28.982651 5.506525 0.000000 0.000000 0.000000 0.000000 0.000000 0.000000 6.681278 11.636061 -41.179225 -6.034915 -20.615849 -4.869533 2.763072 4.565670 -9.001881 0.000000 0.000000 0.000000 -3.386749 5.875219 -40.173845 5.297239 0.262738 0.155054 -1.952432 0.656979 -3.148385 0.000000 0.000000 0.000000
-28.372608 75.529751 325.801413 4.506668 -2.460806 45.154447 0.584458 0.529869 -44.917798 0.685989 0.033294 0.239330 -12.014544 -11.090625 0.677338 0.000000 0.000000 0.000000 -64.675555 -12.523090 7.723278 -115.100227 39.639230 94.708878 -20.466038 -26.337786 70.405382 18.178482 -14.278121 -166.292232 0.000000 0.000000 0.000000 0.000000 0.000000 0.000000 11.254684 -1.031839 -4.835654 -5.928460 2.669580 2.002435 -3.655370 12.639271 1.544101 2.757765 -30.051575 5.237428 0.000000 0.000000 0.000000 0.000000 0.000000 0.000000 5.728295 10.996281 -45.632602 -5.117433 -16.877973 -3.672498 4.221790 5.924101 -5.901021 0.000000 0.000000 0.000000 -3.840027 5.064494 -44.926549 2.390159 3.463632 0.426902 -0.581175 -2.535039 0.923545 0.000000 0.000000 0.000000
-28.153727 76.375013 325.903865 5.584556 -2.590092 48.568588 0.752578 0.357680 -48.265905 0.737598 0.041051 0.295828 -15.981525 -14.506982 1.177049 0.000000 0.000000 0.000000 -81.432643 -3.860928 16.067070 -76.458406 51.897105 53.388873 -27.632471 -18.321628 35.753284 30.684031 -12.302877 -108.539052 0.000000 0.000000 0.000000 0.000000 0.000000 0.000000 10.636526 -2.302243 -5.058483 -5.262690 3.843987 1.948502 -4.453596 11.063709 1.892341 4.550662 -25.292933 4.003560 0.000000 0.000000 0.000000 0.000000 0.000000 0.000000 4.221396 10.357238 -48.909350 -4.170991 -12.604344 -2.444848 5.234818 6.796573 -2.763138 0.000000 0.000000 0.000000 -4.285061 4.202165 -48.544855 -0.760349 5.623192 0.715879 2.175219 -6.315228 4.047516 0.000000 0.000000 0.000000
-28.019349 76.841723 325.997088 6.501634 -2.694730 49.512603 0.903838 0.162019 -49.149685 0.702847 0.067736 0.340164 -19.571861 -16.842544 1.913515 0.000000 0.000000 0.000000 -93.730088 -0.069332 22.468701 -34.609976 54.449414 22.495854 -41.872152 -10.016937 29.002914 52.093117 -18.100509 -76.466708 0.000000 0.000000 0.000000 0.000000 0.000000 0.000000 9.932485 -3.669584 -5.173176 -4.482274 4.954323 1.868722 -6.522667 8.060536 2.352103 7.585828 -20.232698 2.874351 0.000000 0.000000 0.000000 0.000000 0.000000 0.000000 2.391216 9.855787 -49.655259 -3.729733 -8.586229 -1.446537 6.291315 7.143334 -1.357679 0.000000 0.000000 0.000000 -4.604534 3.595591 -49.611962 -3.785337 6.298919 0.861603 8.328209 -12.247528 0.965209 0.000000 0.000000 0.000000
-27.975039 76.904644 325.980035 6.993808 -2.695305 47.888679 0.997355 -0.049222 -47.488110 0.554811 0.116613 0.357890 -21.368373 -18.486487 2.006790 0.000000 0.000000 0.000000 -98.300021 2.846611 26.427565 -11.689712 48.947386 4.092308 -47.052672 -2.495516 10.660968 73.582106 -4.563937 -36.667033 0.000000 0.000000 0.000000 0.000000 0.000000 0.000000 9.491352 -5.044470 -5.172415 -3.947524 6.145202 1.779206 -10.315825 2.254153 2.812114 12.166933 -13.876059 1.441703 0.000000 0.000000 0.000000 0.000000 0.000000 0.000000 0.564489 9.147484 -47.816493 -3.942569 -5.902615 -0.933952 6.967429 6.802011 -1.373985 0.000000 0.000000 0.000000 -4.537487 3.106246 -48.055687 -6.149759 5.632185 0.766960 11.759424 -13.456728 -4.223349 0.000000 0.000000 0.000000
